<svg width="31" height="33" viewBox="0 0 31 33" fill="none" xmlns="http://www.w3.org/2000/svg">
<path d="M26.6626 8.95974C29.0625 8.95974 31 6.94976 31 4.48555C31 2.02134 29.0625 0 26.6626 0C24.2628 0 22.3253 2.00998 22.3253 4.47419C22.3253 5.51893 22.6665 6.47282 23.25 7.23366L16.832 14.5014C16.3146 14.1948 15.7202 14.0131 15.0817 14.0131C14.5202 14.0131 13.9808 14.1493 13.5075 14.3992L9.85263 9.766C10.1939 9.28906 10.392 8.69856 10.392 8.06263C10.392 6.46146 9.12607 5.15554 7.57386 5.15554C6.02166 5.15554 4.75568 6.46146 4.75568 8.06263C4.75568 9.6638 6.02166 10.9697 7.57386 10.9697C7.98118 10.9697 8.37749 10.8789 8.72976 10.7085L12.3736 15.3417C11.8892 15.9549 11.603 16.7385 11.603 17.5902C11.603 17.8513 11.636 18.1125 11.68 18.3624L6.78125 20.6676C6.09872 19.691 4.99787 19.0551 3.7429 19.0551C1.6843 19.0551 0 20.7811 0 22.916C0 25.0396 1.6733 26.777 3.7429 26.777C5.8125 26.777 7.4858 25.0509 7.4858 22.916C7.4858 22.6094 7.45277 22.3142 7.38672 22.0303L12.2855 19.7251C12.924 20.5995 13.9368 21.1786 15.0707 21.1786C15.7422 21.1786 16.3587 20.9855 16.8871 20.6449L20.7731 24.8352C20.1236 25.6982 19.7383 26.7657 19.7383 27.9353C19.7383 30.7288 21.94 33 24.6481 33C27.3562 33 29.5579 30.7288 29.5579 27.9353C29.5579 25.1418 27.3562 22.8706 24.6481 22.8706C23.5913 22.8706 22.6225 23.2113 21.8189 23.8018L17.9329 19.6115C18.3182 19.0323 18.5384 18.3396 18.5384 17.6015C18.5384 16.8293 18.2962 16.1025 17.8888 15.5234L24.3068 8.25568C25.0004 8.69856 25.804 8.95974 26.6626 8.95974ZM3.75391 25.2667C2.48793 25.2667 1.46413 24.2106 1.46413 22.9047C1.46413 21.5988 2.48793 20.5427 3.75391 20.5427C5.01989 20.5427 6.04368 21.5988 6.04368 22.9047C6.04368 24.2106 5.01989 25.2667 3.75391 25.2667ZM26.6626 1.49897C28.2589 1.49897 29.5469 2.83895 29.5469 4.47419C29.5469 6.12079 28.2479 7.44942 26.6626 7.44942C25.0774 7.44942 23.7784 6.10943 23.7784 4.47419C23.7784 2.83895 25.0664 1.49897 26.6626 1.49897ZM6.20881 8.06263C6.20881 7.29043 6.82528 6.65451 7.57386 6.65451C8.32244 6.65451 8.93892 7.29043 8.93892 8.06263C8.93892 8.83483 8.32244 9.47075 7.57386 9.47075C6.82528 9.47075 6.20881 8.83483 6.20881 8.06263ZM15.0817 19.6683C13.9698 19.6683 13.0671 18.7371 13.0671 17.5902C13.0671 16.4432 13.9698 15.512 15.0817 15.512C16.1935 15.512 17.0962 16.4432 17.0962 17.5902C17.0962 18.7371 16.1935 19.6683 15.0817 19.6683ZM28.1158 27.9353C28.1158 29.8999 26.5636 31.501 24.6591 31.501C22.7546 31.501 21.2024 29.8999 21.2024 27.9353C21.2024 25.9708 22.7546 24.3696 24.6591 24.3696C26.5636 24.3696 28.1158 25.9708 28.1158 27.9353Z" fill="#0B457F"/>
</svg>
