<svg width="28" height="13" viewBox="0 0 28 13" fill="none" xmlns="http://www.w3.org/2000/svg">
<path d="M4.422 1.222C4.062 1.222 3.788 1.324 3.6 1.528C3.412 1.732 3.318 2.048 3.318 2.476V4.918C3.318 5.27 3.25 5.552 3.114 5.764C2.982 5.972 2.808 6.126 2.592 6.226C2.38 6.326 2.156 6.39 1.92 6.418V6.346C2.156 6.37 2.38 6.434 2.592 6.538C2.808 6.638 2.982 6.794 3.114 7.006C3.25 7.214 3.318 7.496 3.318 7.852C3.318 8.052 3.318 8.284 3.318 8.548C3.318 8.808 3.318 9.074 3.318 9.346C3.318 9.554 3.318 9.758 3.318 9.958C3.318 10.154 3.318 10.33 3.318 10.486C3.318 10.914 3.412 11.214 3.6 11.386C3.788 11.558 4.062 11.644 4.422 11.644V12.802C3.926 12.802 3.482 12.746 3.09 12.634C2.702 12.522 2.396 12.33 2.172 12.058C1.948 11.79 1.836 11.42 1.836 10.948C1.836 10.776 1.836 10.578 1.836 10.354C1.836 10.134 1.836 9.908 1.836 9.676C1.836 9.416 1.836 9.162 1.836 8.914C1.836 8.662 1.836 8.44 1.836 8.248C1.836 7.96 1.806 7.726 1.746 7.546C1.686 7.366 1.582 7.224 1.434 7.12C1.29 7.016 1.088 6.936 0.828 6.88V5.89C1.088 5.834 1.29 5.754 1.434 5.65C1.582 5.546 1.686 5.404 1.746 5.224C1.806 5.044 1.836 4.81 1.836 4.522V2.002C1.836 1.53 1.948 1.152 2.172 0.868C2.396 0.584 2.702 0.38 3.09 0.256C3.482 0.127999 3.926 0.0639992 4.422 0.0639992V1.222ZM5.42878 10L7.71478 1.138H10.2108L12.4788 10H10.8528L8.95678 2.116H8.96878L7.05478 10H5.42878ZM6.90478 7.846V6.58H11.0208V7.846H6.90478ZM15.1549 10H13.5709V1.15H16.4149C17.0949 1.15 17.6689 1.28 18.1369 1.54C18.6089 1.796 18.9669 2.146 19.2109 2.59C19.4589 3.03 19.5829 3.522 19.5829 4.066C19.5829 4.614 19.4589 5.116 19.2109 5.572C18.9629 6.028 18.6009 6.394 18.1249 6.67C17.6529 6.942 17.0829 7.078 16.4149 7.078H15.1549V10ZM15.1549 6.574L14.4409 5.824H16.2409C16.6089 5.824 16.9229 5.754 17.1829 5.614C17.4429 5.47 17.6409 5.268 17.7769 5.008C17.9169 4.744 17.9869 4.43 17.9869 4.066C17.9869 3.702 17.9189 3.398 17.7829 3.154C17.6509 2.906 17.4549 2.72 17.1949 2.596C16.9349 2.472 16.6169 2.41 16.2409 2.41H14.4409L15.1549 1.624V6.574ZM20.8251 10V1.15H22.3851V10H20.8251ZM23.816 1.222V0.0639992C24.312 0.0639992 24.754 0.127999 25.142 0.256C25.534 0.38 25.842 0.584 26.066 0.868C26.294 1.152 26.408 1.53 26.408 2.002C26.408 2.206 26.408 2.412 26.408 2.62C26.408 2.828 26.408 3.038 26.408 3.25C26.408 3.462 26.408 3.674 26.408 3.886C26.408 4.098 26.408 4.31 26.408 4.522C26.408 4.81 26.438 5.044 26.498 5.224C26.558 5.404 26.66 5.546 26.804 5.65C26.952 5.754 27.154 5.834 27.41 5.89V6.88C27.154 6.936 26.952 7.016 26.804 7.12C26.66 7.224 26.558 7.366 26.498 7.546C26.438 7.726 26.408 7.96 26.408 8.248V10.948C26.408 11.42 26.294 11.79 26.066 12.058C25.842 12.33 25.534 12.522 25.142 12.634C24.754 12.746 24.312 12.802 23.816 12.802V11.644C24.176 11.644 24.45 11.558 24.638 11.386C24.83 11.214 24.926 10.914 24.926 10.486V7.852C24.926 7.496 24.992 7.214 25.124 7.006C25.26 6.794 25.434 6.638 25.646 6.538C25.858 6.434 26.084 6.37 26.324 6.346V6.418C26.084 6.39 25.858 6.326 25.646 6.226C25.434 6.126 25.26 5.972 25.124 5.764C24.992 5.552 24.926 5.27 24.926 4.918C24.926 4.694 24.926 4.472 24.926 4.252C24.926 4.032 24.926 3.812 24.926 3.592C24.926 3.408 24.926 3.224 24.926 3.04C24.926 2.852 24.926 2.664 24.926 2.476C24.926 2.048 24.83 1.732 24.638 1.528C24.45 1.324 24.176 1.222 23.816 1.222Z" fill="#0B457F"/>
</svg>
