<svg width="20" height="20" viewBox="0 0 20 20" fill="none" xmlns="http://www.w3.org/2000/svg">
<path d="M0.625 3.4375C0.625 2.69158 0.921316 1.97621 1.44876 1.44876C1.97621 0.921316 2.69158 0.625 3.4375 0.625H16.5625C17.3084 0.625 18.0238 0.921316 18.5512 1.44876C19.0787 1.97621 19.375 2.69158 19.375 3.4375V16.5625C19.375 17.3084 19.0787 18.0238 18.5512 18.5512C18.0238 19.0787 17.3084 19.375 16.5625 19.375H3.4375C2.69158 19.375 1.97621 19.0787 1.44876 18.5512C0.921316 18.0238 0.625 17.3084 0.625 16.5625V3.4375ZM15.3512 7.85125C15.5273 7.67521 15.6262 7.43645 15.6262 7.1875C15.6262 6.93855 15.5273 6.69979 15.3512 6.52375C15.1752 6.34771 14.9365 6.24882 14.6875 6.24882C14.4385 6.24882 14.1998 6.34771 14.0238 6.52375L8.125 12.4244L5.97625 10.2738C5.80021 10.0977 5.56145 9.99882 5.3125 9.99882C5.06355 9.99882 4.82479 10.0977 4.64875 10.2738C4.47271 10.4498 4.37382 10.6885 4.37382 10.9375C4.37382 11.1865 4.47271 11.4252 4.64875 11.6012L7.46125 14.4137C7.54834 14.5011 7.65179 14.5703 7.76569 14.6176C7.87958 14.6648 8.00169 14.6892 8.125 14.6892C8.24831 14.6892 8.37042 14.6648 8.48431 14.6176C8.59821 14.5703 8.70166 14.5011 8.78875 14.4137L15.3512 7.85125Z" fill="#0B457F"/>
</svg>
