<svg width="35" height="33" viewBox="0 0 35 33" fill="none" xmlns="http://www.w3.org/2000/svg">
<path d="M8.83493 13.0168H6.31023C5.97789 13.0168 5.70816 13.2866 5.70816 13.6189V16.1436C5.70816 16.476 5.97789 16.7457 6.31023 16.7457H8.83493C9.16727 16.7457 9.437 16.476 9.437 16.1436V13.6189C9.437 13.2862 9.16727 13.0168 8.83493 13.0168ZM8.23285 15.5415H6.91231V14.221H8.23285V15.5415Z" fill="#111111"/>
<path d="M14.3336 13.0168H11.8089C11.4766 13.0168 11.2068 13.2866 11.2068 13.6189V16.1436C11.2068 16.476 11.4766 16.7457 11.8089 16.7457H14.3336C14.6659 16.7457 14.9357 16.476 14.9357 16.1436V13.6189C14.9357 13.2862 14.6659 13.0168 14.3336 13.0168ZM13.7315 15.5415H12.411V14.221H13.7315V15.5415Z" fill="#111111"/>
<path d="M27.8402 18.5159H25.3155C24.9831 18.5159 24.7134 18.7856 24.7134 19.1179V21.6426C24.7134 21.975 24.9831 22.2447 25.3155 22.2447H27.8402C28.1725 22.2447 28.4422 21.975 28.4422 21.6426V19.1179C28.4422 18.7852 28.1725 18.5159 27.8402 18.5159ZM27.2381 21.0406H25.9175V19.72H27.2381V21.0406Z" fill="#111111"/>
<path d="M27.8402 24.0188H25.3155C24.9831 24.0188 24.7134 24.2885 24.7134 24.6209V27.1456C24.7134 27.4779 24.9831 27.7476 25.3155 27.7476H27.8402C28.1725 27.7476 28.4422 27.4779 28.4422 27.1456V24.6209C28.4422 24.2885 28.1725 24.0188 27.8402 24.0188ZM27.2381 26.5435H25.9175V25.2229H27.2381V26.5435Z" fill="#111111"/>
<path d="M22.3415 7.51392H19.8168C19.4845 7.51392 19.2147 7.78364 19.2147 8.11599V10.6407C19.2147 10.973 19.4845 11.2428 19.8168 11.2428H22.3415C22.6738 11.2428 22.9436 10.973 22.9436 10.6407V8.11599C22.9436 7.78364 22.6738 7.51392 22.3415 7.51392ZM21.7394 10.0386H20.4189V8.71806H21.7394V10.0386Z" fill="#111111"/>
<path d="M27.8402 7.51392H25.3155C24.9831 7.51392 24.7134 7.78364 24.7134 8.11599V10.6407C24.7134 10.973 24.9831 11.2428 25.3155 11.2428H27.8402C28.1725 11.2428 28.4422 10.973 28.4422 10.6407V8.11599C28.4422 7.78364 28.1725 7.51392 27.8402 7.51392ZM27.2381 10.0386H25.9175V8.71806H27.2381V10.0386Z" fill="#111111"/>
<path d="M22.3415 2.01489H19.8168C19.4845 2.01489 19.2147 2.28462 19.2147 2.61697V5.14166C19.2147 5.474 19.4845 5.74373 19.8168 5.74373H22.3415C22.6738 5.74373 22.9436 5.474 22.9436 5.14166V2.61697C22.9436 2.28422 22.6738 2.01489 22.3415 2.01489ZM21.7394 4.53959H20.4189V3.21904H21.7394V4.53959Z" fill="#111111"/>
<path d="M27.8402 2.01489H25.3155C24.9831 2.01489 24.7134 2.28462 24.7134 2.61697V5.14166C24.7134 5.474 24.9831 5.74373 25.3155 5.74373H27.8402C28.1725 5.74373 28.4422 5.474 28.4422 5.14166V2.61697C28.4422 2.28422 28.1725 2.01489 27.8402 2.01489ZM27.2381 4.53959H25.9175V3.21904H27.2381V4.53959Z" fill="#111111"/>
<path d="M0.593698 32.7287C0.599318 32.7287 0.604937 32.7287 0.610556 32.7287H33.5239C33.8562 32.7335 34.13 32.4678 34.1344 32.135C34.1392 31.8027 33.8735 31.529 33.5407 31.5245C33.5351 31.5245 33.5295 31.5245 33.5235 31.5245H31.1754V3.03445C31.1754 1.37714 29.8428 0 28.2012 0H19.4554C17.8138 0 16.4812 1.37714 16.4812 3.03445V9.28397H6.47876C4.53527 9.28397 2.95864 10.92 2.95864 12.8924V31.5245H0.610556C0.278212 31.5197 0.00446952 31.7854 5.43159e-05 32.1182C-0.00436089 32.4509 0.260953 32.7239 0.593698 32.7287ZM17.6853 3.03445C17.6853 2.01855 18.4881 1.20415 19.4554 1.20415H28.2016C29.1689 1.20415 29.9717 2.01855 29.9717 3.03445V31.5245H17.6853V3.03445ZM4.16279 12.8924C4.16279 11.5574 5.2112 10.4881 6.47876 10.4881H16.4812V31.5245H4.16279V12.8924Z" fill="#111111"/>
</svg>
