<svg width="14" height="14" viewBox="0 0 14 14" fill="none" xmlns="http://www.w3.org/2000/svg">
<path fill-rule="evenodd" clip-rule="evenodd" d="M10.4995 7.7H7.69989V10.5H6.30007V7.7H3.49951V6.3H6.30007V3.5H7.69989V6.3H10.4995V7.7Z" fill="#130F26"/>
<path fill-rule="evenodd" clip-rule="evenodd" d="M7 1.5C3.97806 1.5 1.5 3.97837 1.5 7C1.5 10.0216 3.97806 12.5 7 12.5C10.0211 12.5 12.5 10.0215 12.5 7C12.5 3.9785 10.0211 1.5 7 1.5ZM0 7C0 3.15 3.14958 0 7 0C10.8495 0 14 3.15 14 7C14 10.85 10.8495 14 7 14C3.14958 14 0 10.85 0 7Z" fill="#130F26"/>
</svg>
