<svg width="27" height="31" viewBox="0 0 27 31" fill="none" xmlns="http://www.w3.org/2000/svg">
<path d="M13.5 9.99976C20.4036 9.99976 26 7.98504 26 5.49976C26 3.01447 20.4036 0.999756 13.5 0.999756C6.59644 0.999756 1 3.01447 1 5.49976C1 7.98504 6.59644 9.99976 13.5 9.99976Z" stroke="#111111" stroke-width="1.5" stroke-linecap="round" stroke-linejoin="round"/>
<circle cx="21.5" cy="14.4998" r="1.5" fill="#111111"/>
<path d="M26 14.9998C26 17.7664 20.4444 19.9998 13.5 19.9998C6.55556 19.9998 1 17.7664 1 14.9998" stroke="#111111" stroke-width="1.5" stroke-linecap="round" stroke-linejoin="round"/>
<path d="M1 4.99976V25.588C1 28.0292 6.55556 29.9998 13.5 29.9998C20.4444 29.9998 26 28.0292 26 25.588V4.99976" stroke="#111111" stroke-width="1.5" stroke-linecap="round" stroke-linejoin="round"/>
</svg>
