<svg width="13" height="13" viewBox="0 0 13 13" fill="none" xmlns="http://www.w3.org/2000/svg">
<path d="M12.0247 8.73576V11.3974C12.0247 11.4504 12.0171 11.4996 12.0057 11.5451C11.9527 11.8063 11.7218 12.0032 11.4492 12.0032H0.571702C0.280172 12.0032 0.0378611 11.7798 0.00757224 11.4958C2.87728e-08 11.4618 0 11.4315 0 11.3936V8.73198C0 8.41773 0.257455 8.16406 0.567916 8.16406C0.723146 8.16406 0.867018 8.22843 0.969243 8.33065C1.07147 8.43288 1.13583 8.57675 1.13583 8.73198V10.8636H10.8926V8.73198C10.8926 8.41773 11.1501 8.16406 11.4605 8.16406C11.6158 8.16406 11.7596 8.22843 11.8619 8.33065C11.9603 8.43666 12.0247 8.58053 12.0247 8.73576Z" fill="#0B457F"/>
<path d="M9.28614 6.06913L6.49578 8.85948C6.492 8.86706 6.48442 8.87084 6.48064 8.87463C6.37841 8.97685 6.2459 9.04122 6.11338 9.06015C6.10203 9.06015 6.09067 9.06393 6.07931 9.06393C6.05659 9.06772 6.03388 9.06772 6.01116 9.06772L5.9468 9.06393C5.93544 9.06393 5.92408 9.06015 5.91272 9.06015C5.77642 9.04122 5.64769 8.97685 5.54547 8.87463C5.54168 8.87084 5.53411 8.86327 5.53032 8.85948L2.73997 6.06913C2.61124 5.9404 2.54688 5.77002 2.54688 5.59965C2.54688 5.42927 2.61124 5.2589 2.73997 5.13017C2.99742 4.87272 3.41768 4.87272 3.67892 5.13017L5.35616 6.80742V0.662568C5.35616 0.299102 5.65527 0 6.01873 0C6.20046 0 6.36705 0.075722 6.48821 0.193091C6.60936 0.314247 6.6813 0.477049 6.6813 0.662568V6.80742L8.35854 5.13017C8.616 4.87272 9.03626 4.87272 9.2975 5.13017C9.54359 5.39141 9.54359 5.81167 9.28614 6.06913Z" fill="#0B457F"/>
</svg>
