<svg width="20" height="13" viewBox="0 0 20 13" fill="none" xmlns="http://www.w3.org/2000/svg">
<path d="M9.99967 1.9987C13.158 1.9987 15.9747 3.7737 17.3497 6.58203C15.9747 9.39036 13.158 11.1654 9.99967 11.1654C6.84134 11.1654 4.02467 9.39036 2.64967 6.58203C4.02467 3.7737 6.84134 1.9987 9.99967 1.9987ZM9.99967 0.332031C5.83301 0.332031 2.27467 2.9237 0.833008 6.58203C2.27467 10.2404 5.83301 12.832 9.99967 12.832C14.1663 12.832 17.7247 10.2404 19.1663 6.58203C17.7247 2.9237 14.1663 0.332031 9.99967 0.332031ZM9.99967 4.4987C11.1497 4.4987 12.083 5.43203 12.083 6.58203C12.083 7.73203 11.1497 8.66536 9.99967 8.66536C8.84967 8.66536 7.91634 7.73203 7.91634 6.58203C7.91634 5.43203 8.84967 4.4987 9.99967 4.4987ZM9.99967 2.83203C7.93301 2.83203 6.24967 4.51536 6.24967 6.58203C6.24967 8.6487 7.93301 10.332 9.99967 10.332C12.0663 10.332 13.7497 8.6487 13.7497 6.58203C13.7497 4.51536 12.0663 2.83203 9.99967 2.83203Z" fill="#130F26"/>
</svg>
