<svg width="20" height="25" viewBox="0 0 20 25" fill="none" xmlns="http://www.w3.org/2000/svg">
<path d="M19.1917 10.2083H18.7833V5.30833C18.7833 5.30833 18.7833 5.30833 18.7833 5.28383C18.7813 5.2477 18.7744 5.21199 18.7629 5.17767V5.14092C18.7442 5.09723 18.7179 5.05715 18.6853 5.0225L13.7853 0.1225C13.7507 0.0899414 13.7106 0.0636858 13.6669 0.0449166H13.6302C13.5895 0.0226305 13.5453 0.00744088 13.4995 0H1.225C1.1167 0 1.01284 0.0430207 0.936265 0.119598C0.859688 0.196175 0.816667 0.300037 0.816667 0.408333V10.2083H0.408333C0.300037 10.2083 0.196176 10.2514 0.119598 10.3279C0.0430208 10.4045 0 10.5084 0 10.6167V18.7833C0 18.8916 0.0430208 18.9955 0.119598 19.0721C0.196176 19.1486 0.300037 19.1917 0.408333 19.1917H0.816667V24.0917C0.816667 24.2 0.859688 24.3038 0.936265 24.3804C1.01284 24.457 1.1167 24.5 1.225 24.5H18.375C18.4833 24.5 18.5872 24.457 18.6637 24.3804C18.7403 24.3038 18.7833 24.2 18.7833 24.0917V19.1917H19.1917C19.3 19.1917 19.4038 19.1486 19.4804 19.0721C19.557 18.9955 19.6 18.8916 19.6 18.7833V10.6167C19.6 10.5084 19.557 10.4045 19.4804 10.3279C19.4038 10.2514 19.3 10.2083 19.1917 10.2083ZM13.8833 1.39242L17.3909 4.9H13.8833V1.39242ZM17.9667 23.6833H1.63333V19.1917H17.9667V23.6833ZM17.9667 10.2083H1.63333V0.816667H13.0667V5.30833C13.0667 5.41663 13.1097 5.52049 13.1863 5.59707C13.2628 5.67365 13.3667 5.71667 13.475 5.71667H17.9667V10.2083Z" fill="#222222"/>
<path d="M18.7833 10.2656H19.1917C19.3 10.2656 19.4038 10.3086 19.4804 10.3852C19.557 10.4618 19.6 10.5657 19.6 10.674V18.8406C19.6 18.9489 19.557 19.0528 19.4804 19.1294C19.4038 19.2059 19.3 19.249 19.1917 19.249H18.7833H17.9667H1.63333H0.816667H0.408333C0.300037 19.249 0.196176 19.2059 0.119598 19.1294C0.0430208 19.0528 0 18.9489 0 18.8406V10.674C0 10.5657 0.0430208 10.4618 0.119598 10.3852C0.196176 10.3086 0.300037 10.2656 0.408333 10.2656H0.816667H1.63333H17.9667H18.7833Z" fill="#565757"/>
<path d="M14.3813 12.1328C14.6172 12.1328 14.8423 12.1608 15.0566 12.2166C15.2708 12.2725 15.4949 12.3512 15.7288 12.4526L15.4183 13.2009L15.2445 13.132C15.0786 13.0687 14.9363 13.0224 14.8175 12.9929C14.6591 12.9535 14.5034 12.9339 14.3502 12.9339C14.168 12.9339 14.0283 12.9763 13.931 13.0612C13.8338 13.146 13.7851 13.2568 13.7851 13.3934C13.7851 13.4783 13.8048 13.5523 13.8441 13.6154C13.8834 13.6785 13.946 13.7396 14.0319 13.7986C14.1179 13.8576 14.3212 13.9637 14.6421 14.1168C15.0664 14.3197 15.3572 14.5231 15.5145 14.727C15.6719 14.9308 15.7505 15.1808 15.7505 15.4768C15.7505 15.8866 15.603 16.2095 15.3081 16.4455C15.0131 16.6815 14.6027 16.7995 14.077 16.7995C13.5926 16.7995 13.1641 16.7084 12.7915 16.5262V15.632C13.0979 15.7687 13.3572 15.8649 13.5693 15.9208C13.7815 15.9767 13.9755 16.0046 14.1515 16.0046C14.3626 16.0046 14.5246 15.9643 14.6374 15.8835C14.7502 15.8028 14.8066 15.6827 14.8066 15.5234C14.8066 15.4344 14.7818 15.3552 14.7321 15.2858C14.6824 15.2165 14.6095 15.1497 14.5132 15.0856L14.4568 15.0503C14.3704 14.999 14.2396 14.9307 14.0645 14.8454L13.9248 14.7782C13.6475 14.6478 13.4394 14.5226 13.3007 14.4025C13.1621 14.2824 13.0513 14.1427 12.9685 13.9833C12.8857 13.8239 12.8443 13.6377 12.8443 13.4245C12.8443 13.0229 12.9804 12.7072 13.2526 12.4775C13.5248 12.2477 13.901 12.1328 14.3813 12.1328ZM5.82414 12.198L6.80219 13.8312L7.7616 12.198H8.79864L7.37349 14.4491L8.90731 16.7374H7.80817L6.75251 15.0204L5.69684 16.7374H4.66602L6.17189 14.3963L4.76227 12.198H5.82414ZM10.4411 12.198V15.9425H12.2823V16.7374H9.47861V12.198H10.4411Z" fill="white"/>
</svg>
