<svg width="16" height="20" viewBox="0 0 16 20" fill="none" xmlns="http://www.w3.org/2000/svg">
<path d="M8.00032 10.0007C6.99199 10.0007 6.16699 9.17565 6.16699 8.16732C6.16699 7.15899 6.99199 6.33399 8.00032 6.33399C9.00866 6.33399 9.83366 7.15899 9.83366 8.16732C9.83366 9.17565 9.00866 10.0007 8.00032 10.0007ZM13.5003 8.35065C13.5003 5.02315 11.0712 2.66732 8.00032 2.66732C4.92949 2.66732 2.50033 5.02315 2.50033 8.35065C2.50033 10.4957 4.28782 13.3373 8.00032 16.729C11.7128 13.3373 13.5003 10.4957 13.5003 8.35065ZM8.00032 0.833984C11.8503 0.833984 15.3337 3.78565 15.3337 8.35065C15.3337 11.394 12.8862 14.9965 8.00032 19.1673C3.11449 14.9965 0.666992 11.394 0.666992 8.35065C0.666992 3.78565 4.15033 0.833984 8.00032 0.833984Z" fill="#130F26"/>
</svg>
