<svg width="13" height="13" viewBox="0 0 13 13" fill="none" xmlns="http://www.w3.org/2000/svg">
<path d="M9.74956 4.33293H9.20789V3.24959C9.20789 1.75459 7.99456 0.54126 6.49956 0.54126C5.00456 0.54126 3.79123 1.75459 3.79123 3.24959V4.33293H3.24956C2.65373 4.33293 2.16623 4.82043 2.16623 5.41626V10.8329C2.16623 11.4288 2.65373 11.9163 3.24956 11.9163H9.74956C10.3454 11.9163 10.8329 11.4288 10.8329 10.8329V5.41626C10.8329 4.82043 10.3454 4.33293 9.74956 4.33293ZM4.87456 3.24959C4.87456 2.35043 5.60039 1.62459 6.49956 1.62459C7.39873 1.62459 8.12456 2.35043 8.12456 3.24959V4.33293H4.87456V3.24959ZM9.74956 10.8329H3.24956V5.41626H9.74956V10.8329Z" fill="white"/>
<rect x="6" y="7" width="1" height="3" rx="0.5" fill="white"/>
</svg>
