<svg width="50" height="51" viewBox="0 0 50 51" fill="none" xmlns="http://www.w3.org/2000/svg">
<path d="M34.6562 23.4765C37.9944 23.4765 40.7024 20.7717 40.7024 17.4351C40.7024 14.0986 37.9944 11.3938 34.6562 11.3938" stroke="#111111" stroke-width="2" stroke-linecap="round" stroke-linejoin="round"/>
<path d="M37.4358 30.042C38.4327 30.1107 39.4238 30.252 40.3997 30.4715C41.7556 30.7368 43.3865 31.2923 43.967 32.5082C44.3375 33.2869 44.3375 34.1936 43.967 34.9743C43.3884 36.1902 41.7556 36.7438 40.3997 37.0225" stroke="#111111" stroke-width="2" stroke-linecap="round" stroke-linejoin="round"/>
<path d="M15.1043 23.4765C11.7661 23.4765 9.05811 20.7717 9.05811 17.4351C9.05811 14.0986 11.7661 11.3938 15.1043 11.3938" stroke="#111111" stroke-width="2" stroke-linecap="round" stroke-linejoin="round"/>
<path d="M12.3248 30.042C11.3279 30.1107 10.3367 30.252 9.36086 30.4715C8.00496 30.7368 6.37406 31.2923 5.79541 32.5082C5.42301 33.2869 5.42301 34.1936 5.79541 34.9743C6.37215 36.1902 8.00496 36.7438 9.36086 37.0225" stroke="#111111" stroke-width="2" stroke-linecap="round" stroke-linejoin="round"/>
<path fill-rule="evenodd" clip-rule="evenodd" d="M24.8706 31.343C31.6348 31.343 37.4136 32.3661 37.4136 36.4605C37.4136 40.553 31.673 41.6143 24.8706 41.6143C18.1044 41.6143 12.3275 40.5911 12.3275 36.4968C12.3275 32.4024 18.0681 31.343 24.8706 31.343Z" stroke="#111111" stroke-width="2" stroke-linecap="round" stroke-linejoin="round"/>
<path fill-rule="evenodd" clip-rule="evenodd" d="M24.8705 25.5028C20.4094 25.5028 16.8325 21.9276 16.8325 17.4667C16.8325 13.0078 20.4094 9.43262 24.8705 9.43262C29.3316 9.43262 32.9085 13.0078 32.9085 17.4667C32.9085 21.9276 29.3316 25.5028 24.8705 25.5028Z" stroke="#111111" stroke-width="2" stroke-linecap="round" stroke-linejoin="round"/>
</svg>
