<svg width="13" height="13" viewBox="0 0 13 13" fill="none" xmlns="http://www.w3.org/2000/svg">
<path d="M9.75002 4.33329H9.20835V3.24996C9.20835 1.75496 7.99502 0.541626 6.50002 0.541626C5.00502 0.541626 3.79169 1.75496 3.79169 3.24996H4.87502C4.87502 2.35079 5.60085 1.62496 6.50002 1.62496C7.39919 1.62496 8.12502 2.35079 8.12502 3.24996V4.33329H3.25002C2.65419 4.33329 2.16669 4.82079 2.16669 5.41663V10.8333C2.16669 11.4291 2.65419 11.9166 3.25002 11.9166H9.75002C10.3459 11.9166 10.8334 11.4291 10.8334 10.8333V5.41663C10.8334 4.82079 10.3459 4.33329 9.75002 4.33329ZM9.75002 10.8333H3.25002V5.41663H9.75002V10.8333Z" fill="white"/>
<path d="M6.00018 7.50012C6.00018 7.22398 6.22404 7.00012 6.50018 7.00012C6.77633 7.00012 7.00018 7.22398 7.00018 7.50012V9.50012C7.00018 9.77626 6.77633 10.0001 6.50018 10.0001C6.22404 10.0001 6.00018 9.77626 6.00018 9.50012V7.50012Z" fill="white"/>
</svg>
