<svg width="9" height="12" viewBox="0 0 9 12" fill="none" xmlns="http://www.w3.org/2000/svg">
<path d="M7.7513 4.33464H7.20963V3.2513C7.20963 1.7563 5.9963 0.542969 4.5013 0.542969C3.0063 0.542969 1.79297 1.7563 1.79297 3.2513H2.8763C2.8763 2.35214 3.60214 1.6263 4.5013 1.6263C5.40047 1.6263 6.1263 2.35214 6.1263 3.2513V4.33464H1.2513C0.655469 4.33464 0.167969 4.82214 0.167969 5.41797V10.8346C0.167969 11.4305 0.655469 11.918 1.2513 11.918H7.7513C8.34714 11.918 8.83463 11.4305 8.83463 10.8346V5.41797C8.83463 4.82214 8.34714 4.33464 7.7513 4.33464ZM7.7513 10.8346H1.2513V5.41797H7.7513V10.8346Z" fill="white"/>
<path d="M4.00146 7.50146C4.00146 7.22532 4.22532 7.00146 4.50146 7.00146C4.77761 7.00146 5.00146 7.22532 5.00146 7.50146V9.50146C5.00146 9.77761 4.77761 10.0015 4.50146 10.0015C4.22532 10.0015 4.00146 9.77761 4.00146 9.50146V7.50146Z" fill="white"/>
</svg>
