<svg width="24" height="29" viewBox="0 0 24 29" fill="none" xmlns="http://www.w3.org/2000/svg">
<path fill-rule="evenodd" clip-rule="evenodd" d="M16.2856 1H19.5522C20.9037 1 22.0001 2.1059 22.0001 3.47018V4.03748C22.0001 5.40074 20.9037 6.50767 19.5522 6.50767H16.2856C14.933 6.50767 13.8367 5.40074 13.8367 4.03748V3.47018C13.8367 2.1059 14.933 1 16.2856 1Z" stroke="#200E32" stroke-width="1.5" stroke-linecap="round" stroke-linejoin="round"/>
<path fill-rule="evenodd" clip-rule="evenodd" d="M4.44895 1H7.71452C9.06706 1 10.1634 2.1059 10.1634 3.47018V7.75284C10.1634 9.11609 9.06706 10.223 7.71452 10.223H4.44895C3.09641 10.223 2.00003 9.11609 2.00003 7.75284V3.47018C2.00003 2.1059 3.09641 1 4.44895 1Z" stroke="#200E32" stroke-width="1.5" stroke-linecap="round" stroke-linejoin="round"/>
<path fill-rule="evenodd" clip-rule="evenodd" d="M4.44895 13.6403H7.71452C9.06707 13.6403 10.1634 14.7462 10.1634 16.1115V16.6778C10.1634 18.0421 9.06707 19.148 7.71452 19.148H4.44895C3.09641 19.148 2.00003 18.0421 2.00003 16.6778V16.1115C2.00003 14.7462 3.09641 13.6403 4.44895 13.6403Z" stroke="#200E32" stroke-width="1.5" stroke-linecap="round" stroke-linejoin="round"/>
<path fill-rule="evenodd" clip-rule="evenodd" d="M16.2856 10.0504H19.5522C20.9037 10.0504 22.0001 11.2891 22.0001 12.8185V16.507C22.0001 18.0352 20.9037 19.274 19.5522 19.274H16.2856C14.933 19.274 13.8367 18.0352 13.8367 16.507V12.8185C13.8367 11.2891 14.933 10.0504 16.2856 10.0504Z" stroke="#200E32" stroke-width="1.5" stroke-linecap="round" stroke-linejoin="round"/>
</svg>
