<svg width="28" height="28" viewBox="0 0 28 28" fill="none" xmlns="http://www.w3.org/2000/svg">
<path fill-rule="evenodd" clip-rule="evenodd" d="M2.69995 21.1901C2.69995 22.7329 3.95477 23.9877 5.49754 23.9877H22.5024C24.0451 23.9877 25.2999 22.7329 25.2999 21.1901V6.77295C25.2999 5.23019 24.0451 3.97536 22.5024 3.97536H5.49754C3.95477 3.97536 2.69995 5.23019 2.69995 6.77295V21.1901ZM4.04391 6.77295C4.04391 5.97173 4.69632 5.31933 5.49754 5.31933H22.5024C23.3036 5.31933 23.956 5.97173 23.956 6.77295V21.1901C23.956 21.9913 23.3036 22.6437 22.5024 22.6437H5.49754C4.69632 22.6437 4.04391 21.9913 4.04391 21.1901V6.77295Z" fill="black"/>
<path fill-rule="evenodd" clip-rule="evenodd" d="M15.7976 11.7358C15.5092 11.7358 15.2756 11.9697 15.2756 12.2578C15.2756 12.5461 15.5093 12.7798 15.7976 12.7798H21.6428C21.9312 12.7798 22.1648 12.5461 22.1648 12.2578C22.1648 11.9697 21.931 11.7358 21.6428 11.7358H15.7976ZM15.7976 17.1146C15.5092 17.1146 15.2756 17.3485 15.2756 17.6366C15.2756 17.9249 15.5093 18.1585 15.7976 18.1585H21.6428C21.9312 18.1585 22.1648 17.9249 22.1648 17.6366C22.1648 17.3484 21.931 17.1146 21.6428 17.1146H15.7976ZM15.7976 19.804C15.5092 19.804 15.2756 20.0379 15.2756 20.326C15.2756 20.6143 15.5093 20.8479 15.7976 20.8479H21.6428C21.9312 20.8479 22.1648 20.6143 22.1648 20.326C22.1648 20.0378 21.931 19.804 21.6428 19.804H15.7976ZM15.7976 14.4252C15.5092 14.4252 15.2756 14.6591 15.2756 14.9472C15.2756 15.2355 15.5093 15.4692 15.7976 15.4692H21.6428C21.9312 15.4692 22.1648 15.2355 22.1648 14.9472C22.1648 14.659 21.931 14.4252 21.6428 14.4252H15.7976Z" fill="black"/>
<path fill-rule="evenodd" clip-rule="evenodd" d="M2.69995 8.88423C2.69995 9.25542 3.00075 9.55621 3.37193 9.55621H24.628C24.9992 9.55621 25.2999 9.25542 25.2999 8.88423C25.2999 8.51304 24.9992 8.21225 24.628 8.21225H3.37193C3.00075 8.21225 2.69995 8.51304 2.69995 8.88423Z" fill="black"/>
<path d="M7.50019 6.25824C7.22434 6.25824 6.99994 6.48264 6.99994 6.75824C6.99994 7.03385 7.22434 7.25824 7.50019 7.25824C7.77579 7.25824 8.00019 7.03385 8.00019 6.75824C8.00019 6.48264 7.77579 6.25824 7.50019 6.25824Z" fill="black"/>
<path d="M5.66766 6.25824C5.39206 6.25824 5.16766 6.48264 5.16766 6.75824C5.16766 7.03385 5.39206 7.25824 5.66766 7.25824C5.94352 7.25824 6.16792 7.03385 6.16792 6.75824C6.16792 6.48264 5.94352 6.25824 5.66766 6.25824Z" fill="black"/>
<path d="M9.49994 6.25824C9.22409 6.25824 8.99994 6.48264 8.99994 6.75824C8.99994 7.03385 9.22434 7.25824 9.49994 7.25824C9.77579 7.25824 10.0002 7.03385 10.0002 6.75824C10.0002 6.48264 9.77579 6.25824 9.49994 6.25824Z" fill="black"/>
<path fill-rule="evenodd" clip-rule="evenodd" d="M6.24171 11.7358C5.95331 11.7358 5.71973 11.9697 5.71973 12.2578V20.326C5.71973 20.6143 5.95336 20.8479 6.24171 20.8479H12.9905C13.2788 20.8479 13.5125 20.6143 13.5125 20.326V12.2578C13.5125 11.9697 13.2789 11.7358 12.9905 11.7358H6.24171ZM6.76369 19.804V12.7798H12.4685V19.804H6.76369Z" fill="black"/>
</svg>
